<?xml version="1.0" encoding="utf-8"?>
<svg version="1.1" id="Layer_1" xmlns="http://www.w3.org/2000/svg" xmlns:xlink="http://www.w3.org/1999/xlink" x="0px" y="0px"
	 width="80px" height="80px" viewBox="0 0 80 80" enable-background="new 0 0 80 80" xml:space="preserve">
<g>
	<g>
		<path fill="#EDF0F1" d="M11.652,76C10.718,76,10,75.148,10,74.214V13.57c0-0.934,0.718-1.57,1.652-1.57h36.887L60,21.987v52.227
			C60,75.148,58.782,76,57.848,76H11.652z"/>
		<g>
			<path fill="#95A5A6" d="M48.155,13L59,22.419v51.794C59,74.605,58.239,75,57.848,75H11.652C11.261,75,11,74.605,11,74.214V13.57
				C11,13.18,11.261,13,11.652,13H48 M48.923,11H11.652C10.173,11,9,12.091,9,13.57v60.644C9,75.693,10.173,77,11.652,77h46.195
				C59.327,77,61,75.693,61,74.214V21.555L48.923,11L48.923,11z"/>
		</g>
	</g>
	<rect x="24" y="20" fill="#49ABE0" width="17" height="4"/>
	<g opacity="0.6">
		<rect x="24" y="32" fill="#95A5A6" width="21" height="2"/>
		<rect x="24" y="35" fill="#95A5A6" width="15" height="2"/>
	</g>
	<g>
		<path fill="#FFFFFF" d="M56,35.35c-8.279,0-15.016-6.661-15.016-14.849S47.721,5.652,56,5.652s15.016,6.661,15.016,14.849
			S64.279,35.35,56,35.35z"/>
		<g>
			<path fill="#95A5A6" d="M56,6.636c7.736,0,14.03,6.22,14.03,13.865S63.736,34.366,56,34.366s-14.031-6.22-14.031-13.865
				S48.264,6.636,56,6.636 M56,4.667c-8.836,0-16,7.089-16,15.834s7.164,15.834,16,15.834s16-7.089,16-15.834S64.836,4.667,56,4.667
				L56,4.667z"/>
		</g>
	</g>
	<polygon fill="#29B99A" points="65.438,14.479 58.374,17.511 58.374,11.446 	"/>
	<g>
		<polygon fill="#3F5567" points="48.416,30.5 50.621,30.5 51.725,30.5 51.725,29.397 51.725,27.192 53.93,27.192 55.031,27.192 
			55.031,26.09 55.031,23.885 59.442,23.885 59.442,22.782 55.031,22.782 53.93,22.782 53.93,23.885 53.93,26.09 51.725,26.09 
			50.621,26.09 50.621,27.192 50.621,29.397 48.416,29.397 47.314,29.397 47.314,30.5 		"/>
		<path fill="#3F5567" d="M58.34,21.175V11.036c0.322-0.192,0.551-0.531,0.551-0.934C58.891,9.494,58.396,9,57.788,9
			s-1.103,0.494-1.103,1.103c0,0.402,0.229,0.741,0.551,0.934v10.139h-1.102v1.103h3.308v-1.103H58.34z"/>
	</g>
	<rect x="17.25" y="33.334" opacity="0.6" fill="#95A5A6" width="0.5" height="30.916"/>
	<g>
		<circle fill="#49ABE0" cx="17.5" cy="48.5" r="3"/>
	</g>
	<g>
		<circle fill="#49ABE0" cx="17.5" cy="63.5" r="3"/>
	</g>
	<g>
		<circle fill="#49ABE0" cx="17.5" cy="34" r="3"/>
	</g>
	<g opacity="0.6">
		<rect x="24" y="46" fill="#95A5A6" width="21" height="2"/>
		<rect x="24" y="49" fill="#95A5A6" width="15" height="2"/>
	</g>
	<g opacity="0.6">
		<rect x="24" y="61" fill="#95A5A6" width="21" height="2"/>
		<rect x="24" y="64" fill="#95A5A6" width="15" height="2"/>
	</g>
	<g>
		<circle fill="#2A81BA" cx="17.5" cy="48.5" r="1.5"/>
	</g>
	<g>
		<circle fill="#2A81BA" cx="17.5" cy="63.5" r="1.5"/>
	</g>
	<g>
		<circle fill="#2A81BA" cx="17.5" cy="34" r="1.5"/>
	</g>
</g>
</svg>
